<svg xmlns="http://www.w3.org/2000/svg" viewBox="0 0 339 100"><defs><style>.cls-1{isolation:isolate;}.cls-2,.cls-3,.cls-5,.cls-6{fill:#fff;}.cls-2{opacity:0.2;}.cls-4{fill:none;}.cls-5{opacity:0.5;}.cls-5,.cls-6{mix-blend-mode:soft-light;}</style></defs><title>Fichier 7</title><g class="cls-1"><g id="Calque_2" data-name="Calque 2"><g id="Layer_1" data-name="Layer 1"><g id="לוגה_קטן" data-name="לוגה קטן"><rect id="לוגו2" class="cls-2" width="339" height="100"/><path class="cls-3" d="M126.93,58.27V80.49H139.2v1.88H124.75V58.27Z"/><path class="cls-3" d="M159.33,58.27v1.89H146.67v8.43h9.56v1.89h-9.56v10h12.9v1.88H144.49V58.27Z"/><path class="cls-3" d="M181.89,64.33l-2.11.63q-1.44-5.23-6.3-5.23a6.56,6.56,0,0,0-5.71,3.11,13.21,13.21,0,0,0-1.92,7.51q0,5.34,2.39,8.2a6.48,6.48,0,0,0,5.21,2.4,5.67,5.67,0,0,0,5.18-2.85A11.17,11.17,0,0,0,180,72.4h-6.81V70.54h8.86v11.9h-1.55l-.28-4.1a7.21,7.21,0,0,1-3,3.49,7.63,7.63,0,0,1-3.92,1A8.6,8.6,0,0,1,166,79.15a14.51,14.51,0,0,1-2.45-8.77q0-6.18,3.26-9.67a8.74,8.74,0,0,1,6.65-2.87,8.34,8.34,0,0,1,5.67,2A9.47,9.47,0,0,1,181.89,64.33Z"/><path class="cls-3" d="M197.37,58.27l8,24.1H203l-2.55-8h-9.09l-2.61,8h-2.18l8-24.1ZM200,72.66l-2-6.28q-1.08-3.28-1.92-6.39h-.31q-.87,3.23-1.87,6.36l-2,6.31Z"/><path class="cls-3" d="M212.59,58.27V80.49h12.27v1.88H210.42V58.27Z"/><path class="cls-3" d="M254.42,58.27v1.89H241.76v8.43h9.56v1.89h-9.56v10h12.9v1.88H239.58V58.27Z"/><path class="cls-3" d="M268.46,58.27l8,24.1h-2.31l-2.55-8h-9.09l-2.61,8h-2.18l8-24.1Zm2.6,14.39-2-6.28Q268,63.1,267.14,60h-.31Q266,63.22,265,66.35l-2,6.31Z"/><path class="cls-3" d="M295.79,63.42l-2.18.7q-1.38-4.43-5.55-4.42A5.66,5.66,0,0,0,284,61a3.84,3.84,0,0,0-1.25,3,4,4,0,0,0,1.36,3.28,10.72,10.72,0,0,0,3.94,1.61l1,.27c3,.76,5,1.75,6,3a6.76,6.76,0,0,1-1.19,9.07,9.23,9.23,0,0,1-5.71,1.63,9.1,9.1,0,0,1-5.69-1.72,8.46,8.46,0,0,1-2.84-4.23l2.18-.83c.87,3.31,3,5,6.31,5a6.48,6.48,0,0,0,4.67-1.49A4.27,4.27,0,0,0,294,76.32a4.15,4.15,0,0,0-1.3-3.34,11.61,11.61,0,0,0-4.44-1.87l-.84-.24c-2.72-.7-4.6-1.65-5.62-2.83a5.87,5.87,0,0,1-1.26-4,5.65,5.65,0,0,1,2.15-4.57A8,8,0,0,1,288,57.84Q293.83,57.84,295.79,63.42Z"/><path class="cls-3" d="M317.1,58.27v1.89H304.44v8.43H314v1.89h-9.56v10h12.9v1.88H302.26V58.27Z"/><path class="cls-4" d="M52.39,24.46c1,.16,2,.37,3,.62C54.4,24.83,53.4,24.62,52.39,24.46Z"/><path class="cls-4" d="M55.64,25.14c1.08.28,2.15.62,3.19,1C57.79,25.76,56.72,25.42,55.64,25.14Z"/><path class="cls-4" d="M49.1,24.09c.94.06,1.87.16,2.8.29C51,24.25,50,24.15,49.1,24.09Z"/><path class="cls-4" d="M70,84.07l-.69.62Z"/><path class="cls-4" d="M58.83,26.14c.73.27,1.44.56,2.15.87C60.27,26.7,59.56,26.41,58.83,26.14Z"/><path class="cls-4" d="M61,27a35.54,35.54,0,0,1,5.11,2.83A35.54,35.54,0,0,0,61,27Z"/><path class="cls-4" d="M24.34,46.66c-.09.17-.18.34-.26.51C24.16,47,24.25,46.83,24.34,46.66Z"/><path class="cls-4" d="M24,47.26c-.09.18-.18.36-.26.54C23.86,47.62,24,47.44,24,47.26Z"/><path class="cls-4" d="M60.73,28.42a26.79,26.79,0,0,0-19.61,3.81l0,0h0a27.87,27.87,0,0,0-3.18,2.4,26.63,26.63,0,0,0-7.4,10.64A27,27,0,0,0,46.06,80.13,26.68,26.68,0,0,0,57,81.87a27,27,0,0,0,9.43-2.21l.46-.2h0l.11,0h0l.11,0h0a.61.61,0,0,1,.14-.07l.11-.06a27.13,27.13,0,0,0,13.4-14.4c0-.12.09-.23.13-.34A25.71,25.71,0,0,0,82.15,60a27,27,0,0,0-6.91-23.63h0a26.74,26.74,0,0,0-8.43-6A27.23,27.23,0,0,0,60.73,28.42Z"/><path class="cls-4" d="M23.75,47.87c-.09.18-.17.36-.25.55C23.58,48.23,23.66,48.05,23.75,47.87Z"/><path class="cls-4" d="M28.78,40.57l-.24.25Z"/><path class="cls-4" d="M25.72,44.32l-.28.44Z"/><path class="cls-4" d="M29.29,40.07l-.18.18Z"/><path class="cls-4" d="M26.11,43.76c-.1.13-.19.27-.28.41C25.92,44,26,43.89,26.11,43.76Z"/><path class="cls-4" d="M26.51,43.2l-.27.37Z"/><path class="cls-4" d="M25.35,44.89c-.09.15-.18.31-.28.46C25.17,45.2,25.26,45,25.35,44.89Z"/><path class="cls-4" d="M25,45.47l-.27.47Z"/><path class="cls-4" d="M27.83,41.59c-.1.1-.18.21-.27.31C27.65,41.8,27.73,41.69,27.83,41.59Z"/><path class="cls-4" d="M28.3,41.08l-.25.27Z"/><path class="cls-4" d="M24.66,46.06l-.26.49Z"/><path class="cls-4" d="M27.37,42.12l-.27.34Z"/><path class="cls-4" d="M26.93,42.66l-.27.35Z"/><path class="cls-3" d="M23.1,47.22l0-.07c.08-.18.17-.36.26-.54l0-.09c.08-.17.17-.34.26-.51l.06-.11.26-.49.07-.12.27-.47.08-.12.27-.46.09-.13.28-.44.11-.15c.09-.14.18-.28.28-.41s.09-.12.13-.19l.27-.37.15-.19.27-.35c.06-.07.11-.14.17-.2l.27-.34.19-.22.27-.31.22-.24.25-.27a3.07,3.07,0,0,1,.25-.26,2.83,2.83,0,0,1,.24-.25c.1-.11.21-.21.32-.32l.18-.18.52-.48A25.27,25.27,0,0,1,37.25,34a28.78,28.78,0,0,1,3.18-2.4h0l0,0a26.79,26.79,0,0,1,19.61-3.81,27.23,27.23,0,0,1,6.06,1.91l-.7-.49a35.54,35.54,0,0,0-5.11-2.83c-.71-.31-1.42-.6-2.15-.87-1-.38-2.11-.72-3.19-1l-.25-.06c-1-.25-2-.46-3-.62l-.49-.08c-.93-.13-1.86-.23-2.8-.29l-.94-.05a34.52,34.52,0,0,0-4.31.11,33.31,33.31,0,0,0-4.6,2.19A33,33,0,0,0,22.66,48.08c0,.1,0,.2-.05.29.07-.18.14-.36.22-.54l0-.06C22.93,47.58,23,47.4,23.1,47.22Z"/><path class="cls-3" d="M56.75,82.33a26.68,26.68,0,0,1-10.92-1.74A27,27,0,0,1,30.27,45.75a26.63,26.63,0,0,1,7.4-10.64,25.27,25.27,0,0,0-8.09,4.94l-.52.48-.18.18-.33.32-.24.25-.24.26-.25.27-.23.24-.26.31c-.06.08-.13.15-.19.22l-.27.34-.17.2-.27.35-.15.2L26,44c0,.07-.09.13-.13.19l-.28.41-.11.15-.28.44-.09.14-.28.45s-.05.08-.07.13-.18.31-.27.46l-.07.12-.26.49-.06.11c-.09.17-.18.34-.26.51l-.05.09-.25.54,0,.07c-.09.18-.17.37-.25.55l0,.06c-.08.18-.15.36-.23.55a32.83,32.83,0,0,0-.32,9.64h0c1.07,9.2,5.43,18,13.44,23l.2.12A25.53,25.53,0,0,0,56.75,82.33Z"/><path class="cls-3" d="M75.87,34.76h0a26.39,26.39,0,0,1,3.38,4.06,1.93,1.93,0,0,0,.35.4l9.09,7.24A33,33,0,0,0,45.06,22.53l3.67.11.93,0c.94.05,1.88.14,2.81.27L53,23q1.51.24,3,.6l.26.07c1.07.27,2.14.59,3.19,1,.73.26,1.44.55,2.15.86a35,35,0,0,1,5.13,2.79l.66.46.09.05A26.74,26.74,0,0,1,75.87,34.76Z"/><path class="cls-3" d="M46.36,30.48h-.08V35c10.21,1.62,11.9,9.26,12.18,11.69,0-.21,0-.43,0-.64,0-1.19.08-2.41,0-3.6a13.31,13.31,0,0,0-1.28-5.22,11,11,0,0,0-3.08-4h0a9.93,9.93,0,0,0-.86-.63h0a13.06,13.06,0,0,0-6.61-2.12h-.28Z"/><path class="cls-3" d="M68.62,63.76l0,.06"/><path class="cls-3" d="M63.35,59.34l9,7.38.2.17L85.35,51.25l-.2-.17-9-7.38-.2-.17L63.15,59.18Z"/><path class="cls-3" d="M75.94,42.65l10.39,8.51c1.21,1,1.54.59,2.2-.22l1-1.21L76.71,39.25l-1,1.21C75.06,41.26,74.73,41.67,75.94,42.65Z"/><path class="cls-3" d="M72.49,67.73,62.1,59.22c-1.21-1-1.54-.59-2.19.22l-1,1.21,12.8,10.48,1-1.21C73.37,69.12,73.7,68.71,72.49,67.73Z"/><path class="cls-3" d="M80.47,61.69c.82.61,3.06,2.69,10.11,9.66l1.25,1.23c.55.51,8.82,8.85,9.32,9.36a3.22,3.22,0,0,0,4.92-.39l0,0v0a3.42,3.42,0,0,0,.9-2.35,3.67,3.67,0,0,0-1.53-2.54c-.6-.38-10.45-6.79-11.06-7.22l-1.47-1c-8.24-5.48-10.74-7.25-11.5-7.93Z"/><path class="cls-3" d="M91.11,67l1.47,1c.61.43,10.46,6.83,11.06,7.22a3.58,3.58,0,0,1,1.52,2.53,3.49,3.49,0,0,1-.89,2.36h0l0,0A3.63,3.63,0,0,1,102,81.4a3.56,3.56,0,0,1-2.69-.94c-.5-.5-8.77-8.85-9.32-9.36l-1.25-1.23c-7-7-9.3-9.05-10.11-9.65l1-1.2C80.37,59.69,82.87,61.47,91.11,67Z"/><path class="cls-5" d="M81.48,61.38l.26-.33S98.28,72.42,105.2,77a2.66,2.66,0,0,1,.89,4c-2.5,3-5.06.35-5.62-.37a2.47,2.47,0,0,0,3.11-.87s.76-1-1.12-2.39Z"/><path class="cls-6" d="M89.61,68.87s11,12.15,12.23,10.7S89.61,68.87,89.61,68.87Z"/><path class="cls-3" d="M92.16,69.07s9.57,7,11,8.21,1.57,2.22.86,3.15a2.1,2.1,0,0,1-2.09.95,2.5,2.5,0,0,0,3-.74c1.22-1.62-.1-3.26-1.38-4.11Z"/><path class="cls-3" d="M77.34,74.22a8.93,8.93,0,0,0,3.38-5.06c-2.9,4.22-6.09,5.94-10.79,7.37A12,12,0,0,0,77.34,74.22Z"/><path class="cls-3" d="M80.3,67.94c0,.33,0,.59,0,.82C80.34,68.48,80.32,68.21,80.3,67.94Z"/><path class="cls-3" d="M80.29,70.21h0v0c0,.07,0,.4,0,.47s0-.17,0-.13,0,.15,0,.22,0,.08,0,.12l-.06.24s0,.06,0,.09l-.09.33h0c0,.1,0,.21-.08.31v0l-.09.28v0l-.09.27,0,.06-.12.32s-.06.16-.19.44-.15.3-.26.5-.35.63-.59,1c-.12.19-.25.39-.4.6l-.15.22-.32.44-.54.69c-.33.39-.69.79-1.09,1.19-.24.24-.49.48-.76.72s-.54.48-.84.72l-.3.23a17.84,17.84,0,0,1-2.39,1.53,17.35,17.35,0,0,1-2.46,1.07,19.8,19.8,0,0,1-4.45,1c-.55.06-1.12.09-1.7.11a22.47,22.47,0,0,1-5-.37,25.53,25.53,0,0,1-20,.92l.44.28.6.35.1.06h0l.29.17.29.16h0L40,85a32.62,32.62,0,0,0,11.48,3.69c4.82.62,10.35.32,14.19-1.3h0l.19-.13C74.76,83.7,80,76.56,80.33,69.93,80.32,70,80.31,70.11,80.29,70.21Z"/><path class="cls-3" d="M57.66,81.56a23.08,23.08,0,0,0,7.68-5.2A14.38,14.38,0,0,1,61.25,74a9,9,0,0,1-2.42-3,11,11,0,0,1-1-3.5c0,.14.1.27.16.4a4.15,4.15,0,0,1-.21-1.07c0-1,.26-14.94.28-15.95s.1-2.15,0-3.21A10.84,10.84,0,0,0,56.9,43a10.24,10.24,0,0,0-3-3.64h0c-.28-.2-.56-.39-.85-.57h0a14.2,14.2,0,0,0-6.58-2h-.35S45.54,68,45.54,68c.34,4.18,4.19,11,12.11,13.57Z"/></g></g></g></g></svg>